<svg xmlns="http://www.w3.org/2000/svg" viewBox="0 0 80 64" fill="none" role="img" aria-label="ConnectEase logo">
  <!-- Left network connector -->
  <circle cx="3"    cy="34" r="2"   fill="#2563EB" opacity="0.55"/>
  <path   d="M7 34 H12"             stroke="#2563EB" stroke-width="1.6" stroke-linecap="round" opacity="0.55"/>
  <circle cx="14.5" cy="34" r="1.3" fill="#2563EB" opacity="0.55"/>

  <!-- Right network connector -->
  <circle cx="65.5" cy="34" r="1.3" fill="#2563EB" opacity="0.55"/>
  <path   d="M68 34 H73"             stroke="#2563EB" stroke-width="1.6" stroke-linecap="round" opacity="0.55"/>
  <circle cx="77"   cy="34" r="2"   fill="#2563EB" opacity="0.55"/>

  <!-- House outline (relocation) -->
  <path d="M40 7 L62 22 V51 H18 V22 Z"
        stroke="#2563EB" stroke-width="3.4" stroke-linejoin="round" stroke-linecap="round"/>

  <!-- Open book base inside house (community knowledge) -->
  <path d="M24 47 Q32 43 40 47 Q48 43 56 47"
        stroke="#2563EB" stroke-width="2.4" stroke-linecap="round"/>

  <!-- Location pin (your destination) -->
  <path d="M40 18 C34.5 18 30 22.5 30 28 C30 35 40 44 40 44 C40 44 50 35 50 28 C50 22.5 45.5 18 40 18 Z"
        fill="#2563EB"/>
  <circle cx="40" cy="28" r="4.2" fill="#FFFFFF"/>
  <circle cx="40" cy="28" r="1.8" fill="#2563EB"/>
</svg>
